<?xml version="1.0" standalone="no"?><!DOCTYPE svg PUBLIC "-//W3C//DTD SVG 1.1//EN" "http://www.w3.org/Graphics/SVG/1.1/DTD/svg11.dtd"><svg t="1676692863350" class="icon" viewBox="0 0 1024 1024" version="1.1" xmlns="http://www.w3.org/2000/svg" p-id="2997" width="32" height="32" xmlns:xlink="http://www.w3.org/1999/xlink"><path d="M440.32 696.32h51.2v92.16h-51.2zM573.44 696.32h51.2v92.16h-51.2z" fill="#FC9A24" p-id="2998"></path><path d="M711.68 673.83296a25.6 25.6 0 0 1 34.9696 9.3696l35.84 62.07488c2.27328 3.9424 3.3792 8.23296 3.4304 12.48256h79.36a25.6 25.6 0 1 1 0 51.2H299.86816c-0.03072 4.28032-1.13664 8.62208-3.44064 12.60544l-35.84 62.07488a25.6 25.6 0 0 1-44.3392-25.6L244.5824 808.96 148.48 808.96a25.6 25.6 0 1 1 0-51.2h582.08256l-28.2624-48.95744a25.6 25.6 0 0 1 7.8848-34.048zM768 266.24h51.2a20.48 20.48 0 1 1 0 40.96h-51.2v-40.96z" fill="#914C12" p-id="2999"></path><path d="M741.5808 393.40032A245.18656 245.18656 0 0 1 757.76 481.28c0 135.7312-110.0288 245.76-245.76 245.76-77.02528 0-145.77664-35.4304-190.84288-90.90048z" fill="#FDB757" p-id="3000"></path><path d="M665.6 133.12c73.5232 0 133.12 59.5968 133.12 133.12 0 38.4512-16.30208 73.09312-42.37312 97.39264 0.9216 4.93568 1.41312 10.0352 1.41312 15.24736v30.72a81.92 81.92 0 0 1-130.43712 66.01728C574.208 589.01504 488.6528 655.55456 370.64704 675.25632H185.01632a20.48 20.48 0 0 1-14.05952-35.36896L535.6544 295.28064A133.59104 133.59104 0 0 1 532.48 266.24c0-73.5232 59.5968-133.12 133.12-133.12z" fill="#E30027" p-id="3001"></path><path d="M691.2 250.88m-25.6 0a25.6 25.6 0 1 0 51.2 0 25.6 25.6 0 1 0-51.2 0Z" fill="#703709" p-id="3002"></path></svg>