<?xml version="1.0" standalone="no"?><!DOCTYPE svg PUBLIC "-//W3C//DTD SVG 1.1//EN" ><svg  class="icon" viewBox="0 0 1024 1024" version="1.1" xmlns="http://www.w3.org/2000/svg"  xmlns:xlink="http://www.w3.org/1999/xlink" width="200" height="200"><path d="M801.536 501.5552c5.7344 0 8.192-2.816 7.2704-12.6976a297.984 297.984 0 0 0-230.4-266.752c-156.3136-35.9424-319.8976 69.12-351.7952 225.536-1.2288 6.0416-1.7408 3.8912-2.4576 3.584l5.9904 2.56c10.6496 4.9152 30.8224 12.1856 34.9696 12.288 0.256 0 0.256 0.0512 0.8192-1.0752a16.384 16.384 0 0 0 1.28-4.608c30.3104-132.9152 167.1168-219.4944 299.3152-188.8768a245.9136 245.9136 0 0 1 174.3872 152.6272l4.7104 12.288-13.1072 1.536a7441.408 7441.408 0 0 0-50.688 6.144c8.704 6.7584 106.6496 57.6 119.7056 57.4464z" ></path><path d="M610.0992 570.88a20.0192 20.0192 0 0 0-20.2752-19.7632h-48.2304l-3.84-3.84v-23.6544l3.84-3.84h48.2304a20.0704 20.0704 0 0 0 20.2752-19.8144 20.0192 20.0192 0 0 0-20.2752-19.8144h-48.2304l-3.84-3.84 1.1264-5.12 52.9408-51.9168a19.6608 19.6608 0 0 0 0-28.16 20.8384 20.8384 0 0 0-28.9792 0l-49.152 48.128h-5.376l-48.896-47.9744a20.7872 20.7872 0 0 0-28.9792 0 19.6608 19.6608 0 0 0 0 28.2112l54.6816 55.2448v1.5872l-3.84 3.84h-48.2304a20.0192 20.0192 0 0 0-20.2752 19.8144c0 10.9056 9.0624 19.8144 20.2752 19.8144H481.28l3.84 3.84v23.6544l-3.84 3.84h-48.2304a20.0192 20.0192 0 0 0-20.2752 19.8144c0 10.9056 9.0624 19.8144 20.2752 19.8144H481.28l3.84 3.84v29.5424c0 14.1824 11.776 25.7024 26.3168 25.7024a26.0096 26.0096 0 0 0 26.3168-25.7024v-29.5424l3.84-3.84h48.2304a20.0704 20.0704 0 0 0 20.2752-19.8144z" ></path><path d="M756.4288 559.104l-1.1776 6.144-0.512 2.0992c-30.1568 132.3008-165.0176 215.6544-297.8304 184.8832a245.7088 245.7088 0 0 1-170.0864-142.0288l-5.6832-13.056 14.1824-1.2288a9262.7968 9262.7968 0 0 0 47.872-4.3008c1.6384-0.2048 1.7408-0.7168-0.768-2.304a5057.3824 5057.3824 0 0 0-111.104-62.7712c-11.5712-5.9904-16.9984-3.3792-16.2304 8.4992a297.984 297.984 0 0 0 230.4 266.24c160.3584 36.864 320.1024-62.8736 356.8128-222.72l0.512-2.304a46.7456 46.7456 0 0 0 0.6656-3.584l0.256-2.1504c-11.264-3.0208-36.9664-10.5472-46.7968-13.8752l-0.512 2.5088z" ></path></svg>