<?xml version="1.0" standalone="no"?><!DOCTYPE svg PUBLIC "-//W3C//DTD SVG 1.1//EN" ><svg class="icon" viewBox="0 0 1024 1024" version="1.1" xmlns="http://www.w3.org/2000/svg" width="22" height="22" xmlns:xlink="http://www.w3.org/1999/xlink"><path d="M684.8 243.2c32-19.2 64-38.4 83.2-64 25.6-25.6 32-76.8 19.2-108.8-12.8-38.4-44.8-64-83.2-64L320 6.4C288 0 249.6 32 236.8 64 224 102.4 230.4 147.2 256 172.8c25.6 25.6 51.2 51.2 83.2 64C192 320 89.6 492.8 89.6 697.6c0 83.2 19.2 153.6 51.2 224 25.6 64 89.6 96 160 96l435.2 0c70.4 0 134.4-32 160-96 32-70.4 51.2-147.2 51.2-230.4C940.8 492.8 832 320 684.8 243.2zM313.6 121.6c-6.4-6.4-6.4-6.4 0-6.4 0 0 6.4-6.4 12.8-6.4l384 0c6.4 0 12.8 0 12.8 6.4 0 6.4 0 6.4 0 12.8C672 172.8 595.2 198.4 512 198.4 428.8 198.4 358.4 166.4 313.6 121.6zM819.2 896c-12.8 38.4-51.2 57.6-89.6 57.6L294.4 953.6c-38.4 0-76.8-19.2-89.6-57.6-25.6-57.6-38.4-128-38.4-198.4C166.4 467.2 320 281.6 512 281.6c192 0 345.6 185.6 345.6 416C857.6 768 844.8 838.4 819.2 896z" ></path><path d="M652.8 448C640 448 633.6 454.4 627.2 460.8L524.8 608 428.8 460.8C422.4 454.4 416 448 403.2 448 390.4 448 384 454.4 384 467.2c0 6.4 6.4 12.8 6.4 19.2 0 0 0 0 0 0l89.6 134.4L428.8 620.8c-12.8 0-25.6 0-25.6 12.8 0 12.8 6.4 12.8 25.6 12.8l64 0L492.8 704l-64 0c-12.8 0-25.6 0-25.6 12.8 0 12.8 6.4 12.8 25.6 12.8l64 0 0 83.2c0 12.8 12.8 19.2 32 19.2 12.8 0 32-6.4 32-19.2l0-83.2 76.8 0c12.8 0 19.2-6.4 25.6-12.8 0-12.8-6.4-12.8-25.6-12.8L550.4 704l0-57.6 76.8 0c12.8 0 19.2-6.4 25.6-12.8 0-12.8-6.4-12.8-25.6-12.8L576 620.8l89.6-134.4c0 0 0 0 0 0 6.4-6.4 6.4-12.8 6.4-19.2C672 454.4 665.6 448 652.8 448z"></path></svg>